<svg xmlns="http://www.w3.org/2000/svg" width="64" height="64" viewBox="0 0 64 64" id="jeans"><g stroke="#494949" stroke-linecap="round" stroke-linejoin="round" stroke-miterlimit="10" stroke-width="1.5"><path fill="#DDDDDC" d="M30.955 24.301c.057.081.229.344.283.434 4.161 6.971 5.911 30.639 5.911 30.639 3.863.137 9.422-1.044 9.422-1.044l-3.584-26.014-1.318-8.348-1.504-9.476-.602-3.357s-2.346 1.105-8.488 1.242h-.328c-6.143-.137-8.623-1.229-8.623-1.229l-.594 3.272-2.966 18.293-3.582 25.883s5.825.914 9.692.776c0 0 1.749-23.668 5.909-30.639.054-.09.228-.353.282-.434h.091v.002z"></path><path fill="none" d="M25.383 11.66l-5.343 8.31"></path><path fill="#B7B7B7" d="M41.668 19.968l-.877-5.529-.637-4.016c-1.133.523-2.627.91-4.004 1.11l5.518 8.435M20.042 19.968l.872-5.529.639-4.016c1.136.523 2.623.91 4 1.11L20.04 19.97"></path><path fill="none" d="M29.791 21.577l1.074 2.676"></path><path fill="#DDDDDC" d="M33.854 11.772c-1.5.102-2.606.082-2.606.082h-.328s.938 8.535-1.129 9.723l.67.257c5.268.553 3.393-10.062 3.393-10.062z"></path><path fill="#DDDDDC" d="M21.529 10.421l.594-3.272s2.48 1.091 8.623 1.229h.328c6.144-.137 8.488-1.242 8.488-1.242l.592 3.289c-1.133.523-2.627.91-4.004 1.11-2.516.363-4.904.32-4.904.32h-.326c0-.001-6.18.045-9.391-1.434z"></path><circle cx="32.689" cy="10.022" r=".25" fill="none"></circle><path fill="none" d="M30.912 8.873v2.552"></path></g></svg>